<?xml version="1.0" ?><!DOCTYPE svg  PUBLIC '-//W3C//DTD SVG 1.1//EN'  'http://www.w3.org/Graphics/SVG/1.1/DTD/svg11.dtd'><!-- Uploaded to: SVG Repo, www.svgrepo.com, Generator: SVG Repo Mixer Tools -->
<svg fill="#000000" width="800px" height="800px" viewBox="0 0 32 32" style="fill-rule:evenodd;clip-rule:evenodd;stroke-linejoin:round;stroke-miterlimit:2;" version="1.1" xml:space="preserve" xmlns="http://www.w3.org/2000/svg" xmlns:serif="http://www.serif.com/" xmlns:xlink="http://www.w3.org/1999/xlink"><path d="M15,2.142c0,-0.29 -0.126,-0.566 -0.345,-0.755c-0.219,-0.19 -0.51,-0.276 -0.797,-0.235c-7.266,1.042 -12.858,7.297 -12.858,14.848c0,8.279 6.721,15 15,15c7.551,-0 13.806,-5.592 14.848,-12.858c0.041,-0.287 -0.045,-0.578 -0.235,-0.797c-0.189,-0.219 -0.465,-0.345 -0.755,-0.345l-9.858,0c-1.326,0 -2.598,-0.527 -3.536,-1.464c-0.937,-0.938 -1.464,-2.21 -1.464,-3.536c0,-0 0,-9.858 0,-9.858Zm3.142,-0.99c-0.287,-0.041 -0.578,0.045 -0.797,0.235c-0.219,0.189 -0.345,0.465 -0.345,0.755l-0,9.858c-0,0.796 0.316,1.559 0.879,2.121c0.562,0.563 1.325,0.879 2.121,0.879c0,0 9.858,0 9.858,0c0.29,0 0.566,-0.126 0.755,-0.345c0.19,-0.219 0.276,-0.51 0.235,-0.797c-0.94,-6.565 -6.14,-11.765 -12.706,-12.706Z"/><g id="Icon"/></svg>